%TF.GenerationSoftware,KiCad,Pcbnew,7.0.9*%
%TF.CreationDate,2023-11-21T21:31:42+09:00*%
%TF.ProjectId,celeron_kb_1,63656c65-726f-46e5-9f6b-625f312e6b69,rev?*%
%TF.SameCoordinates,Original*%
%TF.FileFunction,Legend,Bot*%
%TF.FilePolarity,Positive*%
%FSLAX46Y46*%
G04 Gerber Fmt 4.6, Leading zero omitted, Abs format (unit mm)*
G04 Created by KiCad (PCBNEW 7.0.9) date 2023-11-21 21:31:42*
%MOMM*%
%LPD*%
G01*
G04 APERTURE LIST*
%ADD10C,0.200000*%
%ADD11C,0.130000*%
%ADD12C,0.300000*%
%ADD13C,0.150000*%
G04 APERTURE END LIST*
D10*
X89985000Y-87050000D02*
X110605000Y-87050000D01*
X89985000Y-87050000D02*
X89985000Y-93550000D01*
X110605000Y-87050000D02*
X110605000Y-93550000D01*
X89985000Y-93550000D02*
X110605000Y-93550000D01*
X96527142Y-84847814D02*
X96312856Y-84919242D01*
X96312856Y-84919242D02*
X96241427Y-84990671D01*
X96241427Y-84990671D02*
X96169999Y-85133528D01*
X96169999Y-85133528D02*
X96169999Y-85347814D01*
X96169999Y-85347814D02*
X96241427Y-85490671D01*
X96241427Y-85490671D02*
X96312856Y-85562100D01*
X96312856Y-85562100D02*
X96455713Y-85633528D01*
X96455713Y-85633528D02*
X97027142Y-85633528D01*
X97027142Y-85633528D02*
X97027142Y-84133528D01*
X97027142Y-84133528D02*
X96527142Y-84133528D01*
X96527142Y-84133528D02*
X96384285Y-84204957D01*
X96384285Y-84204957D02*
X96312856Y-84276385D01*
X96312856Y-84276385D02*
X96241427Y-84419242D01*
X96241427Y-84419242D02*
X96241427Y-84562100D01*
X96241427Y-84562100D02*
X96312856Y-84704957D01*
X96312856Y-84704957D02*
X96384285Y-84776385D01*
X96384285Y-84776385D02*
X96527142Y-84847814D01*
X96527142Y-84847814D02*
X97027142Y-84847814D01*
X94884285Y-84133528D02*
X95169999Y-84133528D01*
X95169999Y-84133528D02*
X95312856Y-84204957D01*
X95312856Y-84204957D02*
X95384285Y-84276385D01*
X95384285Y-84276385D02*
X95527142Y-84490671D01*
X95527142Y-84490671D02*
X95598570Y-84776385D01*
X95598570Y-84776385D02*
X95598570Y-85347814D01*
X95598570Y-85347814D02*
X95527142Y-85490671D01*
X95527142Y-85490671D02*
X95455713Y-85562100D01*
X95455713Y-85562100D02*
X95312856Y-85633528D01*
X95312856Y-85633528D02*
X95027142Y-85633528D01*
X95027142Y-85633528D02*
X94884285Y-85562100D01*
X94884285Y-85562100D02*
X94812856Y-85490671D01*
X94812856Y-85490671D02*
X94741427Y-85347814D01*
X94741427Y-85347814D02*
X94741427Y-84990671D01*
X94741427Y-84990671D02*
X94812856Y-84847814D01*
X94812856Y-84847814D02*
X94884285Y-84776385D01*
X94884285Y-84776385D02*
X95027142Y-84704957D01*
X95027142Y-84704957D02*
X95312856Y-84704957D01*
X95312856Y-84704957D02*
X95455713Y-84776385D01*
X95455713Y-84776385D02*
X95527142Y-84847814D01*
X95527142Y-84847814D02*
X95598570Y-84990671D01*
D11*
X105770902Y-91696382D02*
X105770902Y-92553525D01*
X105770902Y-92553525D02*
X105828045Y-92724954D01*
X105828045Y-92724954D02*
X105942331Y-92839240D01*
X105942331Y-92839240D02*
X106113759Y-92896382D01*
X106113759Y-92896382D02*
X106228045Y-92896382D01*
X104628045Y-92896382D02*
X105199473Y-92896382D01*
X105199473Y-92896382D02*
X105199473Y-91696382D01*
X103542330Y-92782097D02*
X103599473Y-92839240D01*
X103599473Y-92839240D02*
X103770901Y-92896382D01*
X103770901Y-92896382D02*
X103885187Y-92896382D01*
X103885187Y-92896382D02*
X104056616Y-92839240D01*
X104056616Y-92839240D02*
X104170901Y-92724954D01*
X104170901Y-92724954D02*
X104228044Y-92610668D01*
X104228044Y-92610668D02*
X104285187Y-92382097D01*
X104285187Y-92382097D02*
X104285187Y-92210668D01*
X104285187Y-92210668D02*
X104228044Y-91982097D01*
X104228044Y-91982097D02*
X104170901Y-91867811D01*
X104170901Y-91867811D02*
X104056616Y-91753525D01*
X104056616Y-91753525D02*
X103885187Y-91696382D01*
X103885187Y-91696382D02*
X103770901Y-91696382D01*
X103770901Y-91696382D02*
X103599473Y-91753525D01*
X103599473Y-91753525D02*
X103542330Y-91810668D01*
X102685187Y-91696382D02*
X102685187Y-92553525D01*
X102685187Y-92553525D02*
X102742330Y-92724954D01*
X102742330Y-92724954D02*
X102856616Y-92839240D01*
X102856616Y-92839240D02*
X103028044Y-92896382D01*
X103028044Y-92896382D02*
X103142330Y-92896382D01*
X101542330Y-92896382D02*
X102113758Y-92896382D01*
X102113758Y-92896382D02*
X102113758Y-91696382D01*
X100456615Y-92782097D02*
X100513758Y-92839240D01*
X100513758Y-92839240D02*
X100685186Y-92896382D01*
X100685186Y-92896382D02*
X100799472Y-92896382D01*
X100799472Y-92896382D02*
X100970901Y-92839240D01*
X100970901Y-92839240D02*
X101085186Y-92724954D01*
X101085186Y-92724954D02*
X101142329Y-92610668D01*
X101142329Y-92610668D02*
X101199472Y-92382097D01*
X101199472Y-92382097D02*
X101199472Y-92210668D01*
X101199472Y-92210668D02*
X101142329Y-91982097D01*
X101142329Y-91982097D02*
X101085186Y-91867811D01*
X101085186Y-91867811D02*
X100970901Y-91753525D01*
X100970901Y-91753525D02*
X100799472Y-91696382D01*
X100799472Y-91696382D02*
X100685186Y-91696382D01*
X100685186Y-91696382D02*
X100513758Y-91753525D01*
X100513758Y-91753525D02*
X100456615Y-91810668D01*
X99599472Y-91696382D02*
X99599472Y-92553525D01*
X99599472Y-92553525D02*
X99656615Y-92724954D01*
X99656615Y-92724954D02*
X99770901Y-92839240D01*
X99770901Y-92839240D02*
X99942329Y-92896382D01*
X99942329Y-92896382D02*
X100056615Y-92896382D01*
X98456615Y-92896382D02*
X99028043Y-92896382D01*
X99028043Y-92896382D02*
X99028043Y-91696382D01*
X97370900Y-92782097D02*
X97428043Y-92839240D01*
X97428043Y-92839240D02*
X97599471Y-92896382D01*
X97599471Y-92896382D02*
X97713757Y-92896382D01*
X97713757Y-92896382D02*
X97885186Y-92839240D01*
X97885186Y-92839240D02*
X97999471Y-92724954D01*
X97999471Y-92724954D02*
X98056614Y-92610668D01*
X98056614Y-92610668D02*
X98113757Y-92382097D01*
X98113757Y-92382097D02*
X98113757Y-92210668D01*
X98113757Y-92210668D02*
X98056614Y-91982097D01*
X98056614Y-91982097D02*
X97999471Y-91867811D01*
X97999471Y-91867811D02*
X97885186Y-91753525D01*
X97885186Y-91753525D02*
X97713757Y-91696382D01*
X97713757Y-91696382D02*
X97599471Y-91696382D01*
X97599471Y-91696382D02*
X97428043Y-91753525D01*
X97428043Y-91753525D02*
X97370900Y-91810668D01*
X96513757Y-91696382D02*
X96513757Y-92553525D01*
X96513757Y-92553525D02*
X96570900Y-92724954D01*
X96570900Y-92724954D02*
X96685186Y-92839240D01*
X96685186Y-92839240D02*
X96856614Y-92896382D01*
X96856614Y-92896382D02*
X96970900Y-92896382D01*
X95370900Y-92896382D02*
X95942328Y-92896382D01*
X95942328Y-92896382D02*
X95942328Y-91696382D01*
X94285185Y-92782097D02*
X94342328Y-92839240D01*
X94342328Y-92839240D02*
X94513756Y-92896382D01*
X94513756Y-92896382D02*
X94628042Y-92896382D01*
X94628042Y-92896382D02*
X94799471Y-92839240D01*
X94799471Y-92839240D02*
X94913756Y-92724954D01*
X94913756Y-92724954D02*
X94970899Y-92610668D01*
X94970899Y-92610668D02*
X95028042Y-92382097D01*
X95028042Y-92382097D02*
X95028042Y-92210668D01*
X95028042Y-92210668D02*
X94970899Y-91982097D01*
X94970899Y-91982097D02*
X94913756Y-91867811D01*
X94913756Y-91867811D02*
X94799471Y-91753525D01*
X94799471Y-91753525D02*
X94628042Y-91696382D01*
X94628042Y-91696382D02*
X94513756Y-91696382D01*
X94513756Y-91696382D02*
X94342328Y-91753525D01*
X94342328Y-91753525D02*
X94285185Y-91810668D01*
D10*
X105917142Y-70393528D02*
X105917142Y-68893528D01*
X105917142Y-68893528D02*
X105559999Y-68893528D01*
X105559999Y-68893528D02*
X105345713Y-68964957D01*
X105345713Y-68964957D02*
X105202856Y-69107814D01*
X105202856Y-69107814D02*
X105131427Y-69250671D01*
X105131427Y-69250671D02*
X105059999Y-69536385D01*
X105059999Y-69536385D02*
X105059999Y-69750671D01*
X105059999Y-69750671D02*
X105131427Y-70036385D01*
X105131427Y-70036385D02*
X105202856Y-70179242D01*
X105202856Y-70179242D02*
X105345713Y-70322100D01*
X105345713Y-70322100D02*
X105559999Y-70393528D01*
X105559999Y-70393528D02*
X105917142Y-70393528D01*
X104131427Y-68893528D02*
X103988570Y-68893528D01*
X103988570Y-68893528D02*
X103845713Y-68964957D01*
X103845713Y-68964957D02*
X103774285Y-69036385D01*
X103774285Y-69036385D02*
X103702856Y-69179242D01*
X103702856Y-69179242D02*
X103631427Y-69464957D01*
X103631427Y-69464957D02*
X103631427Y-69822100D01*
X103631427Y-69822100D02*
X103702856Y-70107814D01*
X103702856Y-70107814D02*
X103774285Y-70250671D01*
X103774285Y-70250671D02*
X103845713Y-70322100D01*
X103845713Y-70322100D02*
X103988570Y-70393528D01*
X103988570Y-70393528D02*
X104131427Y-70393528D01*
X104131427Y-70393528D02*
X104274285Y-70322100D01*
X104274285Y-70322100D02*
X104345713Y-70250671D01*
X104345713Y-70250671D02*
X104417142Y-70107814D01*
X104417142Y-70107814D02*
X104488570Y-69822100D01*
X104488570Y-69822100D02*
X104488570Y-69464957D01*
X104488570Y-69464957D02*
X104417142Y-69179242D01*
X104417142Y-69179242D02*
X104345713Y-69036385D01*
X104345713Y-69036385D02*
X104274285Y-68964957D01*
X104274285Y-68964957D02*
X104131427Y-68893528D01*
X97697856Y-58804957D02*
X97840714Y-58733528D01*
X97840714Y-58733528D02*
X98054999Y-58733528D01*
X98054999Y-58733528D02*
X98269285Y-58804957D01*
X98269285Y-58804957D02*
X98412142Y-58947814D01*
X98412142Y-58947814D02*
X98483571Y-59090671D01*
X98483571Y-59090671D02*
X98554999Y-59376385D01*
X98554999Y-59376385D02*
X98554999Y-59590671D01*
X98554999Y-59590671D02*
X98483571Y-59876385D01*
X98483571Y-59876385D02*
X98412142Y-60019242D01*
X98412142Y-60019242D02*
X98269285Y-60162100D01*
X98269285Y-60162100D02*
X98054999Y-60233528D01*
X98054999Y-60233528D02*
X97912142Y-60233528D01*
X97912142Y-60233528D02*
X97697856Y-60162100D01*
X97697856Y-60162100D02*
X97626428Y-60090671D01*
X97626428Y-60090671D02*
X97626428Y-59590671D01*
X97626428Y-59590671D02*
X97912142Y-59590671D01*
X96983571Y-60233528D02*
X96983571Y-58733528D01*
X96983571Y-58733528D02*
X96126428Y-60233528D01*
X96126428Y-60233528D02*
X96126428Y-58733528D01*
X95412142Y-60233528D02*
X95412142Y-58733528D01*
X95412142Y-58733528D02*
X95054999Y-58733528D01*
X95054999Y-58733528D02*
X94840713Y-58804957D01*
X94840713Y-58804957D02*
X94697856Y-58947814D01*
X94697856Y-58947814D02*
X94626427Y-59090671D01*
X94626427Y-59090671D02*
X94554999Y-59376385D01*
X94554999Y-59376385D02*
X94554999Y-59590671D01*
X94554999Y-59590671D02*
X94626427Y-59876385D01*
X94626427Y-59876385D02*
X94697856Y-60019242D01*
X94697856Y-60019242D02*
X94840713Y-60162100D01*
X94840713Y-60162100D02*
X95054999Y-60233528D01*
X95054999Y-60233528D02*
X95412142Y-60233528D01*
X105917142Y-78013528D02*
X105917142Y-76513528D01*
X105917142Y-76513528D02*
X105559999Y-76513528D01*
X105559999Y-76513528D02*
X105345713Y-76584957D01*
X105345713Y-76584957D02*
X105202856Y-76727814D01*
X105202856Y-76727814D02*
X105131427Y-76870671D01*
X105131427Y-76870671D02*
X105059999Y-77156385D01*
X105059999Y-77156385D02*
X105059999Y-77370671D01*
X105059999Y-77370671D02*
X105131427Y-77656385D01*
X105131427Y-77656385D02*
X105202856Y-77799242D01*
X105202856Y-77799242D02*
X105345713Y-77942100D01*
X105345713Y-77942100D02*
X105559999Y-78013528D01*
X105559999Y-78013528D02*
X105917142Y-78013528D01*
X104559999Y-76513528D02*
X103559999Y-76513528D01*
X103559999Y-76513528D02*
X104202856Y-78013528D01*
X96419999Y-69607814D02*
X96919999Y-69607814D01*
X96919999Y-70393528D02*
X96919999Y-68893528D01*
X96919999Y-68893528D02*
X96205713Y-68893528D01*
X94919999Y-68893528D02*
X95634285Y-68893528D01*
X95634285Y-68893528D02*
X95705713Y-69607814D01*
X95705713Y-69607814D02*
X95634285Y-69536385D01*
X95634285Y-69536385D02*
X95491428Y-69464957D01*
X95491428Y-69464957D02*
X95134285Y-69464957D01*
X95134285Y-69464957D02*
X94991428Y-69536385D01*
X94991428Y-69536385D02*
X94919999Y-69607814D01*
X94919999Y-69607814D02*
X94848570Y-69750671D01*
X94848570Y-69750671D02*
X94848570Y-70107814D01*
X94848570Y-70107814D02*
X94919999Y-70250671D01*
X94919999Y-70250671D02*
X94991428Y-70322100D01*
X94991428Y-70322100D02*
X95134285Y-70393528D01*
X95134285Y-70393528D02*
X95491428Y-70393528D01*
X95491428Y-70393528D02*
X95634285Y-70322100D01*
X95634285Y-70322100D02*
X95705713Y-70250671D01*
X105917142Y-72933528D02*
X105917142Y-71433528D01*
X105917142Y-71433528D02*
X105559999Y-71433528D01*
X105559999Y-71433528D02*
X105345713Y-71504957D01*
X105345713Y-71504957D02*
X105202856Y-71647814D01*
X105202856Y-71647814D02*
X105131427Y-71790671D01*
X105131427Y-71790671D02*
X105059999Y-72076385D01*
X105059999Y-72076385D02*
X105059999Y-72290671D01*
X105059999Y-72290671D02*
X105131427Y-72576385D01*
X105131427Y-72576385D02*
X105202856Y-72719242D01*
X105202856Y-72719242D02*
X105345713Y-72862100D01*
X105345713Y-72862100D02*
X105559999Y-72933528D01*
X105559999Y-72933528D02*
X105917142Y-72933528D01*
X103774285Y-71933528D02*
X103774285Y-72933528D01*
X104131427Y-71362100D02*
X104488570Y-72433528D01*
X104488570Y-72433528D02*
X103559999Y-72433528D01*
X96527142Y-79767814D02*
X96312856Y-79839242D01*
X96312856Y-79839242D02*
X96241427Y-79910671D01*
X96241427Y-79910671D02*
X96169999Y-80053528D01*
X96169999Y-80053528D02*
X96169999Y-80267814D01*
X96169999Y-80267814D02*
X96241427Y-80410671D01*
X96241427Y-80410671D02*
X96312856Y-80482100D01*
X96312856Y-80482100D02*
X96455713Y-80553528D01*
X96455713Y-80553528D02*
X97027142Y-80553528D01*
X97027142Y-80553528D02*
X97027142Y-79053528D01*
X97027142Y-79053528D02*
X96527142Y-79053528D01*
X96527142Y-79053528D02*
X96384285Y-79124957D01*
X96384285Y-79124957D02*
X96312856Y-79196385D01*
X96312856Y-79196385D02*
X96241427Y-79339242D01*
X96241427Y-79339242D02*
X96241427Y-79482100D01*
X96241427Y-79482100D02*
X96312856Y-79624957D01*
X96312856Y-79624957D02*
X96384285Y-79696385D01*
X96384285Y-79696385D02*
X96527142Y-79767814D01*
X96527142Y-79767814D02*
X97027142Y-79767814D01*
X95669999Y-79053528D02*
X94741427Y-79053528D01*
X94741427Y-79053528D02*
X95241427Y-79624957D01*
X95241427Y-79624957D02*
X95027142Y-79624957D01*
X95027142Y-79624957D02*
X94884285Y-79696385D01*
X94884285Y-79696385D02*
X94812856Y-79767814D01*
X94812856Y-79767814D02*
X94741427Y-79910671D01*
X94741427Y-79910671D02*
X94741427Y-80267814D01*
X94741427Y-80267814D02*
X94812856Y-80410671D01*
X94812856Y-80410671D02*
X94884285Y-80482100D01*
X94884285Y-80482100D02*
X95027142Y-80553528D01*
X95027142Y-80553528D02*
X95455713Y-80553528D01*
X95455713Y-80553528D02*
X95598570Y-80482100D01*
X95598570Y-80482100D02*
X95669999Y-80410671D01*
X96527142Y-82307814D02*
X96312856Y-82379242D01*
X96312856Y-82379242D02*
X96241427Y-82450671D01*
X96241427Y-82450671D02*
X96169999Y-82593528D01*
X96169999Y-82593528D02*
X96169999Y-82807814D01*
X96169999Y-82807814D02*
X96241427Y-82950671D01*
X96241427Y-82950671D02*
X96312856Y-83022100D01*
X96312856Y-83022100D02*
X96455713Y-83093528D01*
X96455713Y-83093528D02*
X97027142Y-83093528D01*
X97027142Y-83093528D02*
X97027142Y-81593528D01*
X97027142Y-81593528D02*
X96527142Y-81593528D01*
X96527142Y-81593528D02*
X96384285Y-81664957D01*
X96384285Y-81664957D02*
X96312856Y-81736385D01*
X96312856Y-81736385D02*
X96241427Y-81879242D01*
X96241427Y-81879242D02*
X96241427Y-82022100D01*
X96241427Y-82022100D02*
X96312856Y-82164957D01*
X96312856Y-82164957D02*
X96384285Y-82236385D01*
X96384285Y-82236385D02*
X96527142Y-82307814D01*
X96527142Y-82307814D02*
X97027142Y-82307814D01*
X95598570Y-81736385D02*
X95527142Y-81664957D01*
X95527142Y-81664957D02*
X95384285Y-81593528D01*
X95384285Y-81593528D02*
X95027142Y-81593528D01*
X95027142Y-81593528D02*
X94884285Y-81664957D01*
X94884285Y-81664957D02*
X94812856Y-81736385D01*
X94812856Y-81736385D02*
X94741427Y-81879242D01*
X94741427Y-81879242D02*
X94741427Y-82022100D01*
X94741427Y-82022100D02*
X94812856Y-82236385D01*
X94812856Y-82236385D02*
X95669999Y-83093528D01*
X95669999Y-83093528D02*
X94741427Y-83093528D01*
X105059999Y-75330671D02*
X105131427Y-75402100D01*
X105131427Y-75402100D02*
X105345713Y-75473528D01*
X105345713Y-75473528D02*
X105488570Y-75473528D01*
X105488570Y-75473528D02*
X105702856Y-75402100D01*
X105702856Y-75402100D02*
X105845713Y-75259242D01*
X105845713Y-75259242D02*
X105917142Y-75116385D01*
X105917142Y-75116385D02*
X105988570Y-74830671D01*
X105988570Y-74830671D02*
X105988570Y-74616385D01*
X105988570Y-74616385D02*
X105917142Y-74330671D01*
X105917142Y-74330671D02*
X105845713Y-74187814D01*
X105845713Y-74187814D02*
X105702856Y-74044957D01*
X105702856Y-74044957D02*
X105488570Y-73973528D01*
X105488570Y-73973528D02*
X105345713Y-73973528D01*
X105345713Y-73973528D02*
X105131427Y-74044957D01*
X105131427Y-74044957D02*
X105059999Y-74116385D01*
X103774285Y-73973528D02*
X104059999Y-73973528D01*
X104059999Y-73973528D02*
X104202856Y-74044957D01*
X104202856Y-74044957D02*
X104274285Y-74116385D01*
X104274285Y-74116385D02*
X104417142Y-74330671D01*
X104417142Y-74330671D02*
X104488570Y-74616385D01*
X104488570Y-74616385D02*
X104488570Y-75187814D01*
X104488570Y-75187814D02*
X104417142Y-75330671D01*
X104417142Y-75330671D02*
X104345713Y-75402100D01*
X104345713Y-75402100D02*
X104202856Y-75473528D01*
X104202856Y-75473528D02*
X103917142Y-75473528D01*
X103917142Y-75473528D02*
X103774285Y-75402100D01*
X103774285Y-75402100D02*
X103702856Y-75330671D01*
X103702856Y-75330671D02*
X103631427Y-75187814D01*
X103631427Y-75187814D02*
X103631427Y-74830671D01*
X103631427Y-74830671D02*
X103702856Y-74687814D01*
X103702856Y-74687814D02*
X103774285Y-74616385D01*
X103774285Y-74616385D02*
X103917142Y-74544957D01*
X103917142Y-74544957D02*
X104202856Y-74544957D01*
X104202856Y-74544957D02*
X104345713Y-74616385D01*
X104345713Y-74616385D02*
X104417142Y-74687814D01*
X104417142Y-74687814D02*
X104488570Y-74830671D01*
X96419999Y-67067814D02*
X96919999Y-67067814D01*
X96919999Y-67853528D02*
X96919999Y-66353528D01*
X96919999Y-66353528D02*
X96205713Y-66353528D01*
X94991428Y-66853528D02*
X94991428Y-67853528D01*
X95348570Y-66282100D02*
X95705713Y-67353528D01*
X95705713Y-67353528D02*
X94777142Y-67353528D01*
X96419999Y-72147814D02*
X96919999Y-72147814D01*
X96919999Y-72933528D02*
X96919999Y-71433528D01*
X96919999Y-71433528D02*
X96205713Y-71433528D01*
X94991428Y-71433528D02*
X95277142Y-71433528D01*
X95277142Y-71433528D02*
X95419999Y-71504957D01*
X95419999Y-71504957D02*
X95491428Y-71576385D01*
X95491428Y-71576385D02*
X95634285Y-71790671D01*
X95634285Y-71790671D02*
X95705713Y-72076385D01*
X95705713Y-72076385D02*
X95705713Y-72647814D01*
X95705713Y-72647814D02*
X95634285Y-72790671D01*
X95634285Y-72790671D02*
X95562856Y-72862100D01*
X95562856Y-72862100D02*
X95419999Y-72933528D01*
X95419999Y-72933528D02*
X95134285Y-72933528D01*
X95134285Y-72933528D02*
X94991428Y-72862100D01*
X94991428Y-72862100D02*
X94919999Y-72790671D01*
X94919999Y-72790671D02*
X94848570Y-72647814D01*
X94848570Y-72647814D02*
X94848570Y-72290671D01*
X94848570Y-72290671D02*
X94919999Y-72147814D01*
X94919999Y-72147814D02*
X94991428Y-72076385D01*
X94991428Y-72076385D02*
X95134285Y-72004957D01*
X95134285Y-72004957D02*
X95419999Y-72004957D01*
X95419999Y-72004957D02*
X95562856Y-72076385D01*
X95562856Y-72076385D02*
X95634285Y-72147814D01*
X95634285Y-72147814D02*
X95705713Y-72290671D01*
X105417142Y-84847814D02*
X105202856Y-84919242D01*
X105202856Y-84919242D02*
X105131427Y-84990671D01*
X105131427Y-84990671D02*
X105059999Y-85133528D01*
X105059999Y-85133528D02*
X105059999Y-85347814D01*
X105059999Y-85347814D02*
X105131427Y-85490671D01*
X105131427Y-85490671D02*
X105202856Y-85562100D01*
X105202856Y-85562100D02*
X105345713Y-85633528D01*
X105345713Y-85633528D02*
X105917142Y-85633528D01*
X105917142Y-85633528D02*
X105917142Y-84133528D01*
X105917142Y-84133528D02*
X105417142Y-84133528D01*
X105417142Y-84133528D02*
X105274285Y-84204957D01*
X105274285Y-84204957D02*
X105202856Y-84276385D01*
X105202856Y-84276385D02*
X105131427Y-84419242D01*
X105131427Y-84419242D02*
X105131427Y-84562100D01*
X105131427Y-84562100D02*
X105202856Y-84704957D01*
X105202856Y-84704957D02*
X105274285Y-84776385D01*
X105274285Y-84776385D02*
X105417142Y-84847814D01*
X105417142Y-84847814D02*
X105917142Y-84847814D01*
X103702856Y-84133528D02*
X104417142Y-84133528D01*
X104417142Y-84133528D02*
X104488570Y-84847814D01*
X104488570Y-84847814D02*
X104417142Y-84776385D01*
X104417142Y-84776385D02*
X104274285Y-84704957D01*
X104274285Y-84704957D02*
X103917142Y-84704957D01*
X103917142Y-84704957D02*
X103774285Y-84776385D01*
X103774285Y-84776385D02*
X103702856Y-84847814D01*
X103702856Y-84847814D02*
X103631427Y-84990671D01*
X103631427Y-84990671D02*
X103631427Y-85347814D01*
X103631427Y-85347814D02*
X103702856Y-85490671D01*
X103702856Y-85490671D02*
X103774285Y-85562100D01*
X103774285Y-85562100D02*
X103917142Y-85633528D01*
X103917142Y-85633528D02*
X104274285Y-85633528D01*
X104274285Y-85633528D02*
X104417142Y-85562100D01*
X104417142Y-85562100D02*
X104488570Y-85490671D01*
X105845714Y-79767814D02*
X105345714Y-79767814D01*
X105131428Y-80553528D02*
X105845714Y-80553528D01*
X105845714Y-80553528D02*
X105845714Y-79053528D01*
X105845714Y-79053528D02*
X105131428Y-79053528D01*
X103845714Y-79053528D02*
X104131428Y-79053528D01*
X104131428Y-79053528D02*
X104274285Y-79124957D01*
X104274285Y-79124957D02*
X104345714Y-79196385D01*
X104345714Y-79196385D02*
X104488571Y-79410671D01*
X104488571Y-79410671D02*
X104559999Y-79696385D01*
X104559999Y-79696385D02*
X104559999Y-80267814D01*
X104559999Y-80267814D02*
X104488571Y-80410671D01*
X104488571Y-80410671D02*
X104417142Y-80482100D01*
X104417142Y-80482100D02*
X104274285Y-80553528D01*
X104274285Y-80553528D02*
X103988571Y-80553528D01*
X103988571Y-80553528D02*
X103845714Y-80482100D01*
X103845714Y-80482100D02*
X103774285Y-80410671D01*
X103774285Y-80410671D02*
X103702856Y-80267814D01*
X103702856Y-80267814D02*
X103702856Y-79910671D01*
X103702856Y-79910671D02*
X103774285Y-79767814D01*
X103774285Y-79767814D02*
X103845714Y-79696385D01*
X103845714Y-79696385D02*
X103988571Y-79624957D01*
X103988571Y-79624957D02*
X104274285Y-79624957D01*
X104274285Y-79624957D02*
X104417142Y-79696385D01*
X104417142Y-79696385D02*
X104488571Y-79767814D01*
X104488571Y-79767814D02*
X104559999Y-79910671D01*
X96527142Y-77227814D02*
X96312856Y-77299242D01*
X96312856Y-77299242D02*
X96241427Y-77370671D01*
X96241427Y-77370671D02*
X96169999Y-77513528D01*
X96169999Y-77513528D02*
X96169999Y-77727814D01*
X96169999Y-77727814D02*
X96241427Y-77870671D01*
X96241427Y-77870671D02*
X96312856Y-77942100D01*
X96312856Y-77942100D02*
X96455713Y-78013528D01*
X96455713Y-78013528D02*
X97027142Y-78013528D01*
X97027142Y-78013528D02*
X97027142Y-76513528D01*
X97027142Y-76513528D02*
X96527142Y-76513528D01*
X96527142Y-76513528D02*
X96384285Y-76584957D01*
X96384285Y-76584957D02*
X96312856Y-76656385D01*
X96312856Y-76656385D02*
X96241427Y-76799242D01*
X96241427Y-76799242D02*
X96241427Y-76942100D01*
X96241427Y-76942100D02*
X96312856Y-77084957D01*
X96312856Y-77084957D02*
X96384285Y-77156385D01*
X96384285Y-77156385D02*
X96527142Y-77227814D01*
X96527142Y-77227814D02*
X97027142Y-77227814D01*
X94741427Y-78013528D02*
X95598570Y-78013528D01*
X95169999Y-78013528D02*
X95169999Y-76513528D01*
X95169999Y-76513528D02*
X95312856Y-76727814D01*
X95312856Y-76727814D02*
X95455713Y-76870671D01*
X95455713Y-76870671D02*
X95598570Y-76942100D01*
X105417142Y-82307814D02*
X105202856Y-82379242D01*
X105202856Y-82379242D02*
X105131427Y-82450671D01*
X105131427Y-82450671D02*
X105059999Y-82593528D01*
X105059999Y-82593528D02*
X105059999Y-82807814D01*
X105059999Y-82807814D02*
X105131427Y-82950671D01*
X105131427Y-82950671D02*
X105202856Y-83022100D01*
X105202856Y-83022100D02*
X105345713Y-83093528D01*
X105345713Y-83093528D02*
X105917142Y-83093528D01*
X105917142Y-83093528D02*
X105917142Y-81593528D01*
X105917142Y-81593528D02*
X105417142Y-81593528D01*
X105417142Y-81593528D02*
X105274285Y-81664957D01*
X105274285Y-81664957D02*
X105202856Y-81736385D01*
X105202856Y-81736385D02*
X105131427Y-81879242D01*
X105131427Y-81879242D02*
X105131427Y-82022100D01*
X105131427Y-82022100D02*
X105202856Y-82164957D01*
X105202856Y-82164957D02*
X105274285Y-82236385D01*
X105274285Y-82236385D02*
X105417142Y-82307814D01*
X105417142Y-82307814D02*
X105917142Y-82307814D01*
X103774285Y-82093528D02*
X103774285Y-83093528D01*
X104131427Y-81522100D02*
X104488570Y-82593528D01*
X104488570Y-82593528D02*
X103559999Y-82593528D01*
X105917142Y-67853528D02*
X105917142Y-66353528D01*
X105917142Y-66353528D02*
X105559999Y-66353528D01*
X105559999Y-66353528D02*
X105345713Y-66424957D01*
X105345713Y-66424957D02*
X105202856Y-66567814D01*
X105202856Y-66567814D02*
X105131427Y-66710671D01*
X105131427Y-66710671D02*
X105059999Y-66996385D01*
X105059999Y-66996385D02*
X105059999Y-67210671D01*
X105059999Y-67210671D02*
X105131427Y-67496385D01*
X105131427Y-67496385D02*
X105202856Y-67639242D01*
X105202856Y-67639242D02*
X105345713Y-67782100D01*
X105345713Y-67782100D02*
X105559999Y-67853528D01*
X105559999Y-67853528D02*
X105917142Y-67853528D01*
X103631427Y-67853528D02*
X104488570Y-67853528D01*
X104059999Y-67853528D02*
X104059999Y-66353528D01*
X104059999Y-66353528D02*
X104202856Y-66567814D01*
X104202856Y-66567814D02*
X104345713Y-66710671D01*
X104345713Y-66710671D02*
X104488570Y-66782100D01*
D12*
X108263822Y-90240352D02*
X108382870Y-90359400D01*
X108382870Y-90359400D02*
X108740012Y-90478447D01*
X108740012Y-90478447D02*
X108978108Y-90478447D01*
X108978108Y-90478447D02*
X109335251Y-90359400D01*
X109335251Y-90359400D02*
X109573346Y-90121304D01*
X109573346Y-90121304D02*
X109692393Y-89883209D01*
X109692393Y-89883209D02*
X109811441Y-89407019D01*
X109811441Y-89407019D02*
X109811441Y-89049876D01*
X109811441Y-89049876D02*
X109692393Y-88573685D01*
X109692393Y-88573685D02*
X109573346Y-88335590D01*
X109573346Y-88335590D02*
X109335251Y-88097495D01*
X109335251Y-88097495D02*
X108978108Y-87978447D01*
X108978108Y-87978447D02*
X108740012Y-87978447D01*
X108740012Y-87978447D02*
X108382870Y-88097495D01*
X108382870Y-88097495D02*
X108263822Y-88216542D01*
X106240012Y-90359400D02*
X106478108Y-90478447D01*
X106478108Y-90478447D02*
X106954298Y-90478447D01*
X106954298Y-90478447D02*
X107192393Y-90359400D01*
X107192393Y-90359400D02*
X107311441Y-90121304D01*
X107311441Y-90121304D02*
X107311441Y-89168923D01*
X107311441Y-89168923D02*
X107192393Y-88930828D01*
X107192393Y-88930828D02*
X106954298Y-88811780D01*
X106954298Y-88811780D02*
X106478108Y-88811780D01*
X106478108Y-88811780D02*
X106240012Y-88930828D01*
X106240012Y-88930828D02*
X106120965Y-89168923D01*
X106120965Y-89168923D02*
X106120965Y-89407019D01*
X106120965Y-89407019D02*
X107311441Y-89645114D01*
X104692394Y-90478447D02*
X104930489Y-90359400D01*
X104930489Y-90359400D02*
X105049536Y-90121304D01*
X105049536Y-90121304D02*
X105049536Y-87978447D01*
X102787631Y-90359400D02*
X103025727Y-90478447D01*
X103025727Y-90478447D02*
X103501917Y-90478447D01*
X103501917Y-90478447D02*
X103740012Y-90359400D01*
X103740012Y-90359400D02*
X103859060Y-90121304D01*
X103859060Y-90121304D02*
X103859060Y-89168923D01*
X103859060Y-89168923D02*
X103740012Y-88930828D01*
X103740012Y-88930828D02*
X103501917Y-88811780D01*
X103501917Y-88811780D02*
X103025727Y-88811780D01*
X103025727Y-88811780D02*
X102787631Y-88930828D01*
X102787631Y-88930828D02*
X102668584Y-89168923D01*
X102668584Y-89168923D02*
X102668584Y-89407019D01*
X102668584Y-89407019D02*
X103859060Y-89645114D01*
X101597155Y-90478447D02*
X101597155Y-88811780D01*
X101597155Y-89287971D02*
X101478108Y-89049876D01*
X101478108Y-89049876D02*
X101359060Y-88930828D01*
X101359060Y-88930828D02*
X101120965Y-88811780D01*
X101120965Y-88811780D02*
X100882870Y-88811780D01*
X99692394Y-90478447D02*
X99930489Y-90359400D01*
X99930489Y-90359400D02*
X100049536Y-90240352D01*
X100049536Y-90240352D02*
X100168584Y-90002257D01*
X100168584Y-90002257D02*
X100168584Y-89287971D01*
X100168584Y-89287971D02*
X100049536Y-89049876D01*
X100049536Y-89049876D02*
X99930489Y-88930828D01*
X99930489Y-88930828D02*
X99692394Y-88811780D01*
X99692394Y-88811780D02*
X99335251Y-88811780D01*
X99335251Y-88811780D02*
X99097155Y-88930828D01*
X99097155Y-88930828D02*
X98978108Y-89049876D01*
X98978108Y-89049876D02*
X98859060Y-89287971D01*
X98859060Y-89287971D02*
X98859060Y-90002257D01*
X98859060Y-90002257D02*
X98978108Y-90240352D01*
X98978108Y-90240352D02*
X99097155Y-90359400D01*
X99097155Y-90359400D02*
X99335251Y-90478447D01*
X99335251Y-90478447D02*
X99692394Y-90478447D01*
X97787631Y-88811780D02*
X97787631Y-90478447D01*
X97787631Y-89049876D02*
X97668584Y-88930828D01*
X97668584Y-88930828D02*
X97430489Y-88811780D01*
X97430489Y-88811780D02*
X97073346Y-88811780D01*
X97073346Y-88811780D02*
X96835250Y-88930828D01*
X96835250Y-88930828D02*
X96716203Y-89168923D01*
X96716203Y-89168923D02*
X96716203Y-90478447D01*
X96120965Y-90716542D02*
X94216203Y-90716542D01*
X93859060Y-88811780D02*
X93263822Y-90478447D01*
X93263822Y-90478447D02*
X92668583Y-88811780D01*
X90406679Y-90478447D02*
X91835250Y-90478447D01*
X91120964Y-90478447D02*
X91120964Y-87978447D01*
X91120964Y-87978447D02*
X91359060Y-88335590D01*
X91359060Y-88335590D02*
X91597155Y-88573685D01*
X91597155Y-88573685D02*
X91835250Y-88692733D01*
D10*
X105317856Y-63884957D02*
X105460714Y-63813528D01*
X105460714Y-63813528D02*
X105674999Y-63813528D01*
X105674999Y-63813528D02*
X105889285Y-63884957D01*
X105889285Y-63884957D02*
X106032142Y-64027814D01*
X106032142Y-64027814D02*
X106103571Y-64170671D01*
X106103571Y-64170671D02*
X106174999Y-64456385D01*
X106174999Y-64456385D02*
X106174999Y-64670671D01*
X106174999Y-64670671D02*
X106103571Y-64956385D01*
X106103571Y-64956385D02*
X106032142Y-65099242D01*
X106032142Y-65099242D02*
X105889285Y-65242100D01*
X105889285Y-65242100D02*
X105674999Y-65313528D01*
X105674999Y-65313528D02*
X105532142Y-65313528D01*
X105532142Y-65313528D02*
X105317856Y-65242100D01*
X105317856Y-65242100D02*
X105246428Y-65170671D01*
X105246428Y-65170671D02*
X105246428Y-64670671D01*
X105246428Y-64670671D02*
X105532142Y-64670671D01*
X104603571Y-65313528D02*
X104603571Y-63813528D01*
X104603571Y-63813528D02*
X103746428Y-65313528D01*
X103746428Y-65313528D02*
X103746428Y-63813528D01*
X103032142Y-65313528D02*
X103032142Y-63813528D01*
X103032142Y-63813528D02*
X102674999Y-63813528D01*
X102674999Y-63813528D02*
X102460713Y-63884957D01*
X102460713Y-63884957D02*
X102317856Y-64027814D01*
X102317856Y-64027814D02*
X102246427Y-64170671D01*
X102246427Y-64170671D02*
X102174999Y-64456385D01*
X102174999Y-64456385D02*
X102174999Y-64670671D01*
X102174999Y-64670671D02*
X102246427Y-64956385D01*
X102246427Y-64956385D02*
X102317856Y-65099242D01*
X102317856Y-65099242D02*
X102460713Y-65242100D01*
X102460713Y-65242100D02*
X102674999Y-65313528D01*
X102674999Y-65313528D02*
X103032142Y-65313528D01*
X96419999Y-74687814D02*
X96919999Y-74687814D01*
X96919999Y-75473528D02*
X96919999Y-73973528D01*
X96919999Y-73973528D02*
X96205713Y-73973528D01*
X95777142Y-73973528D02*
X94777142Y-73973528D01*
X94777142Y-73973528D02*
X95419999Y-75473528D01*
D13*
X139035714Y-61900414D02*
X138535714Y-61900414D01*
X138321428Y-62686128D02*
X139035714Y-62686128D01*
X139035714Y-62686128D02*
X139035714Y-61186128D01*
X139035714Y-61186128D02*
X138321428Y-61186128D01*
X137749999Y-61328985D02*
X137678571Y-61257557D01*
X137678571Y-61257557D02*
X137535714Y-61186128D01*
X137535714Y-61186128D02*
X137178571Y-61186128D01*
X137178571Y-61186128D02*
X137035714Y-61257557D01*
X137035714Y-61257557D02*
X136964285Y-61328985D01*
X136964285Y-61328985D02*
X136892856Y-61471842D01*
X136892856Y-61471842D02*
X136892856Y-61614700D01*
X136892856Y-61614700D02*
X136964285Y-61828985D01*
X136964285Y-61828985D02*
X137821428Y-62686128D01*
X137821428Y-62686128D02*
X136892856Y-62686128D01*
X120999999Y-77614700D02*
X120785714Y-77686128D01*
X120785714Y-77686128D02*
X120428571Y-77686128D01*
X120428571Y-77686128D02*
X120285714Y-77614700D01*
X120285714Y-77614700D02*
X120214285Y-77543271D01*
X120214285Y-77543271D02*
X120142856Y-77400414D01*
X120142856Y-77400414D02*
X120142856Y-77257557D01*
X120142856Y-77257557D02*
X120214285Y-77114700D01*
X120214285Y-77114700D02*
X120285714Y-77043271D01*
X120285714Y-77043271D02*
X120428571Y-76971842D01*
X120428571Y-76971842D02*
X120714285Y-76900414D01*
X120714285Y-76900414D02*
X120857142Y-76828985D01*
X120857142Y-76828985D02*
X120928571Y-76757557D01*
X120928571Y-76757557D02*
X120999999Y-76614700D01*
X120999999Y-76614700D02*
X120999999Y-76471842D01*
X120999999Y-76471842D02*
X120928571Y-76328985D01*
X120928571Y-76328985D02*
X120857142Y-76257557D01*
X120857142Y-76257557D02*
X120714285Y-76186128D01*
X120714285Y-76186128D02*
X120357142Y-76186128D01*
X120357142Y-76186128D02*
X120142856Y-76257557D01*
X119642857Y-76186128D02*
X119285714Y-77686128D01*
X119285714Y-77686128D02*
X119000000Y-76614700D01*
X119000000Y-76614700D02*
X118714285Y-77686128D01*
X118714285Y-77686128D02*
X118357143Y-76186128D01*
X116999999Y-77686128D02*
X117857142Y-77686128D01*
X117428571Y-77686128D02*
X117428571Y-76186128D01*
X117428571Y-76186128D02*
X117571428Y-76400414D01*
X117571428Y-76400414D02*
X117714285Y-76543271D01*
X117714285Y-76543271D02*
X117857142Y-76614700D01*
X104972142Y-54791128D02*
X104972142Y-56291128D01*
X104972142Y-54862557D02*
X104829285Y-54791128D01*
X104829285Y-54791128D02*
X104543570Y-54791128D01*
X104543570Y-54791128D02*
X104400713Y-54862557D01*
X104400713Y-54862557D02*
X104329285Y-54933985D01*
X104329285Y-54933985D02*
X104257856Y-55076842D01*
X104257856Y-55076842D02*
X104257856Y-55505414D01*
X104257856Y-55505414D02*
X104329285Y-55648271D01*
X104329285Y-55648271D02*
X104400713Y-55719700D01*
X104400713Y-55719700D02*
X104543570Y-55791128D01*
X104543570Y-55791128D02*
X104829285Y-55791128D01*
X104829285Y-55791128D02*
X104972142Y-55719700D01*
X103614999Y-55791128D02*
X103614999Y-54791128D01*
X103614999Y-55076842D02*
X103543570Y-54933985D01*
X103543570Y-54933985D02*
X103472142Y-54862557D01*
X103472142Y-54862557D02*
X103329284Y-54791128D01*
X103329284Y-54791128D02*
X103186427Y-54791128D01*
X102472142Y-55791128D02*
X102614999Y-55719700D01*
X102614999Y-55719700D02*
X102686428Y-55648271D01*
X102686428Y-55648271D02*
X102757856Y-55505414D01*
X102757856Y-55505414D02*
X102757856Y-55076842D01*
X102757856Y-55076842D02*
X102686428Y-54933985D01*
X102686428Y-54933985D02*
X102614999Y-54862557D01*
X102614999Y-54862557D02*
X102472142Y-54791128D01*
X102472142Y-54791128D02*
X102257856Y-54791128D01*
X102257856Y-54791128D02*
X102114999Y-54862557D01*
X102114999Y-54862557D02*
X102043571Y-54933985D01*
X102043571Y-54933985D02*
X101972142Y-55076842D01*
X101972142Y-55076842D02*
X101972142Y-55505414D01*
X101972142Y-55505414D02*
X102043571Y-55648271D01*
X102043571Y-55648271D02*
X102114999Y-55719700D01*
X102114999Y-55719700D02*
X102257856Y-55791128D01*
X102257856Y-55791128D02*
X102472142Y-55791128D01*
X101329285Y-55791128D02*
X101329285Y-54791128D01*
X101329285Y-54933985D02*
X101257856Y-54862557D01*
X101257856Y-54862557D02*
X101114999Y-54791128D01*
X101114999Y-54791128D02*
X100900713Y-54791128D01*
X100900713Y-54791128D02*
X100757856Y-54862557D01*
X100757856Y-54862557D02*
X100686428Y-55005414D01*
X100686428Y-55005414D02*
X100686428Y-55791128D01*
X100686428Y-55005414D02*
X100614999Y-54862557D01*
X100614999Y-54862557D02*
X100472142Y-54791128D01*
X100472142Y-54791128D02*
X100257856Y-54791128D01*
X100257856Y-54791128D02*
X100114999Y-54862557D01*
X100114999Y-54862557D02*
X100043570Y-55005414D01*
X100043570Y-55005414D02*
X100043570Y-55791128D01*
X99329285Y-55791128D02*
X99329285Y-54791128D01*
X99329285Y-54291128D02*
X99400713Y-54362557D01*
X99400713Y-54362557D02*
X99329285Y-54433985D01*
X99329285Y-54433985D02*
X99257856Y-54362557D01*
X99257856Y-54362557D02*
X99329285Y-54291128D01*
X99329285Y-54291128D02*
X99329285Y-54433985D01*
X97972142Y-55719700D02*
X98114999Y-55791128D01*
X98114999Y-55791128D02*
X98400713Y-55791128D01*
X98400713Y-55791128D02*
X98543570Y-55719700D01*
X98543570Y-55719700D02*
X98614999Y-55648271D01*
X98614999Y-55648271D02*
X98686427Y-55505414D01*
X98686427Y-55505414D02*
X98686427Y-55076842D01*
X98686427Y-55076842D02*
X98614999Y-54933985D01*
X98614999Y-54933985D02*
X98543570Y-54862557D01*
X98543570Y-54862557D02*
X98400713Y-54791128D01*
X98400713Y-54791128D02*
X98114999Y-54791128D01*
X98114999Y-54791128D02*
X97972142Y-54862557D01*
X97329285Y-55791128D02*
X97329285Y-54791128D01*
X97329285Y-55076842D02*
X97257856Y-54933985D01*
X97257856Y-54933985D02*
X97186428Y-54862557D01*
X97186428Y-54862557D02*
X97043570Y-54791128D01*
X97043570Y-54791128D02*
X96900713Y-54791128D01*
X96186428Y-55791128D02*
X96329285Y-55719700D01*
X96329285Y-55719700D02*
X96400714Y-55648271D01*
X96400714Y-55648271D02*
X96472142Y-55505414D01*
X96472142Y-55505414D02*
X96472142Y-55076842D01*
X96472142Y-55076842D02*
X96400714Y-54933985D01*
X96400714Y-54933985D02*
X96329285Y-54862557D01*
X96329285Y-54862557D02*
X96186428Y-54791128D01*
X96186428Y-54791128D02*
X95972142Y-54791128D01*
X95972142Y-54791128D02*
X95829285Y-54862557D01*
X95829285Y-54862557D02*
X95757857Y-54933985D01*
X95757857Y-54933985D02*
X95686428Y-55076842D01*
X95686428Y-55076842D02*
X95686428Y-55505414D01*
X95686428Y-55505414D02*
X95757857Y-55648271D01*
X95757857Y-55648271D02*
X95829285Y-55719700D01*
X95829285Y-55719700D02*
X95972142Y-55791128D01*
X95972142Y-55791128D02*
X96186428Y-55791128D01*
X158999999Y-96614700D02*
X158785714Y-96686128D01*
X158785714Y-96686128D02*
X158428571Y-96686128D01*
X158428571Y-96686128D02*
X158285714Y-96614700D01*
X158285714Y-96614700D02*
X158214285Y-96543271D01*
X158214285Y-96543271D02*
X158142856Y-96400414D01*
X158142856Y-96400414D02*
X158142856Y-96257557D01*
X158142856Y-96257557D02*
X158214285Y-96114700D01*
X158214285Y-96114700D02*
X158285714Y-96043271D01*
X158285714Y-96043271D02*
X158428571Y-95971842D01*
X158428571Y-95971842D02*
X158714285Y-95900414D01*
X158714285Y-95900414D02*
X158857142Y-95828985D01*
X158857142Y-95828985D02*
X158928571Y-95757557D01*
X158928571Y-95757557D02*
X158999999Y-95614700D01*
X158999999Y-95614700D02*
X158999999Y-95471842D01*
X158999999Y-95471842D02*
X158928571Y-95328985D01*
X158928571Y-95328985D02*
X158857142Y-95257557D01*
X158857142Y-95257557D02*
X158714285Y-95186128D01*
X158714285Y-95186128D02*
X158357142Y-95186128D01*
X158357142Y-95186128D02*
X158142856Y-95257557D01*
X157642857Y-95186128D02*
X157285714Y-96686128D01*
X157285714Y-96686128D02*
X157000000Y-95614700D01*
X157000000Y-95614700D02*
X156714285Y-96686128D01*
X156714285Y-96686128D02*
X156357143Y-95186128D01*
X155928571Y-95186128D02*
X154928571Y-95186128D01*
X154928571Y-95186128D02*
X155571428Y-96686128D01*
X120999999Y-96614700D02*
X120785714Y-96686128D01*
X120785714Y-96686128D02*
X120428571Y-96686128D01*
X120428571Y-96686128D02*
X120285714Y-96614700D01*
X120285714Y-96614700D02*
X120214285Y-96543271D01*
X120214285Y-96543271D02*
X120142856Y-96400414D01*
X120142856Y-96400414D02*
X120142856Y-96257557D01*
X120142856Y-96257557D02*
X120214285Y-96114700D01*
X120214285Y-96114700D02*
X120285714Y-96043271D01*
X120285714Y-96043271D02*
X120428571Y-95971842D01*
X120428571Y-95971842D02*
X120714285Y-95900414D01*
X120714285Y-95900414D02*
X120857142Y-95828985D01*
X120857142Y-95828985D02*
X120928571Y-95757557D01*
X120928571Y-95757557D02*
X120999999Y-95614700D01*
X120999999Y-95614700D02*
X120999999Y-95471842D01*
X120999999Y-95471842D02*
X120928571Y-95328985D01*
X120928571Y-95328985D02*
X120857142Y-95257557D01*
X120857142Y-95257557D02*
X120714285Y-95186128D01*
X120714285Y-95186128D02*
X120357142Y-95186128D01*
X120357142Y-95186128D02*
X120142856Y-95257557D01*
X119642857Y-95186128D02*
X119285714Y-96686128D01*
X119285714Y-96686128D02*
X119000000Y-95614700D01*
X119000000Y-95614700D02*
X118714285Y-96686128D01*
X118714285Y-96686128D02*
X118357143Y-95186128D01*
X117071428Y-95186128D02*
X117785714Y-95186128D01*
X117785714Y-95186128D02*
X117857142Y-95900414D01*
X117857142Y-95900414D02*
X117785714Y-95828985D01*
X117785714Y-95828985D02*
X117642857Y-95757557D01*
X117642857Y-95757557D02*
X117285714Y-95757557D01*
X117285714Y-95757557D02*
X117142857Y-95828985D01*
X117142857Y-95828985D02*
X117071428Y-95900414D01*
X117071428Y-95900414D02*
X116999999Y-96043271D01*
X116999999Y-96043271D02*
X116999999Y-96400414D01*
X116999999Y-96400414D02*
X117071428Y-96543271D01*
X117071428Y-96543271D02*
X117142857Y-96614700D01*
X117142857Y-96614700D02*
X117285714Y-96686128D01*
X117285714Y-96686128D02*
X117642857Y-96686128D01*
X117642857Y-96686128D02*
X117785714Y-96614700D01*
X117785714Y-96614700D02*
X117857142Y-96543271D01*
X158035714Y-61900414D02*
X157535714Y-61900414D01*
X157321428Y-62686128D02*
X158035714Y-62686128D01*
X158035714Y-62686128D02*
X158035714Y-61186128D01*
X158035714Y-61186128D02*
X157321428Y-61186128D01*
X156821428Y-61186128D02*
X155892856Y-61186128D01*
X155892856Y-61186128D02*
X156392856Y-61757557D01*
X156392856Y-61757557D02*
X156178571Y-61757557D01*
X156178571Y-61757557D02*
X156035714Y-61828985D01*
X156035714Y-61828985D02*
X155964285Y-61900414D01*
X155964285Y-61900414D02*
X155892856Y-62043271D01*
X155892856Y-62043271D02*
X155892856Y-62400414D01*
X155892856Y-62400414D02*
X155964285Y-62543271D01*
X155964285Y-62543271D02*
X156035714Y-62614700D01*
X156035714Y-62614700D02*
X156178571Y-62686128D01*
X156178571Y-62686128D02*
X156607142Y-62686128D01*
X156607142Y-62686128D02*
X156749999Y-62614700D01*
X156749999Y-62614700D02*
X156821428Y-62543271D01*
X120035714Y-61900414D02*
X119535714Y-61900414D01*
X119321428Y-62686128D02*
X120035714Y-62686128D01*
X120035714Y-62686128D02*
X120035714Y-61186128D01*
X120035714Y-61186128D02*
X119321428Y-61186128D01*
X117892856Y-62686128D02*
X118749999Y-62686128D01*
X118321428Y-62686128D02*
X118321428Y-61186128D01*
X118321428Y-61186128D02*
X118464285Y-61400414D01*
X118464285Y-61400414D02*
X118607142Y-61543271D01*
X118607142Y-61543271D02*
X118749999Y-61614700D01*
X101999999Y-96614700D02*
X101785714Y-96686128D01*
X101785714Y-96686128D02*
X101428571Y-96686128D01*
X101428571Y-96686128D02*
X101285714Y-96614700D01*
X101285714Y-96614700D02*
X101214285Y-96543271D01*
X101214285Y-96543271D02*
X101142856Y-96400414D01*
X101142856Y-96400414D02*
X101142856Y-96257557D01*
X101142856Y-96257557D02*
X101214285Y-96114700D01*
X101214285Y-96114700D02*
X101285714Y-96043271D01*
X101285714Y-96043271D02*
X101428571Y-95971842D01*
X101428571Y-95971842D02*
X101714285Y-95900414D01*
X101714285Y-95900414D02*
X101857142Y-95828985D01*
X101857142Y-95828985D02*
X101928571Y-95757557D01*
X101928571Y-95757557D02*
X101999999Y-95614700D01*
X101999999Y-95614700D02*
X101999999Y-95471842D01*
X101999999Y-95471842D02*
X101928571Y-95328985D01*
X101928571Y-95328985D02*
X101857142Y-95257557D01*
X101857142Y-95257557D02*
X101714285Y-95186128D01*
X101714285Y-95186128D02*
X101357142Y-95186128D01*
X101357142Y-95186128D02*
X101142856Y-95257557D01*
X100642857Y-95186128D02*
X100285714Y-96686128D01*
X100285714Y-96686128D02*
X100000000Y-95614700D01*
X100000000Y-95614700D02*
X99714285Y-96686128D01*
X99714285Y-96686128D02*
X99357143Y-95186128D01*
X98142857Y-95686128D02*
X98142857Y-96686128D01*
X98499999Y-95114700D02*
X98857142Y-96186128D01*
X98857142Y-96186128D02*
X97928571Y-96186128D01*
X139999999Y-96614700D02*
X139785714Y-96686128D01*
X139785714Y-96686128D02*
X139428571Y-96686128D01*
X139428571Y-96686128D02*
X139285714Y-96614700D01*
X139285714Y-96614700D02*
X139214285Y-96543271D01*
X139214285Y-96543271D02*
X139142856Y-96400414D01*
X139142856Y-96400414D02*
X139142856Y-96257557D01*
X139142856Y-96257557D02*
X139214285Y-96114700D01*
X139214285Y-96114700D02*
X139285714Y-96043271D01*
X139285714Y-96043271D02*
X139428571Y-95971842D01*
X139428571Y-95971842D02*
X139714285Y-95900414D01*
X139714285Y-95900414D02*
X139857142Y-95828985D01*
X139857142Y-95828985D02*
X139928571Y-95757557D01*
X139928571Y-95757557D02*
X139999999Y-95614700D01*
X139999999Y-95614700D02*
X139999999Y-95471842D01*
X139999999Y-95471842D02*
X139928571Y-95328985D01*
X139928571Y-95328985D02*
X139857142Y-95257557D01*
X139857142Y-95257557D02*
X139714285Y-95186128D01*
X139714285Y-95186128D02*
X139357142Y-95186128D01*
X139357142Y-95186128D02*
X139142856Y-95257557D01*
X138642857Y-95186128D02*
X138285714Y-96686128D01*
X138285714Y-96686128D02*
X138000000Y-95614700D01*
X138000000Y-95614700D02*
X137714285Y-96686128D01*
X137714285Y-96686128D02*
X137357143Y-95186128D01*
X136142857Y-95186128D02*
X136428571Y-95186128D01*
X136428571Y-95186128D02*
X136571428Y-95257557D01*
X136571428Y-95257557D02*
X136642857Y-95328985D01*
X136642857Y-95328985D02*
X136785714Y-95543271D01*
X136785714Y-95543271D02*
X136857142Y-95828985D01*
X136857142Y-95828985D02*
X136857142Y-96400414D01*
X136857142Y-96400414D02*
X136785714Y-96543271D01*
X136785714Y-96543271D02*
X136714285Y-96614700D01*
X136714285Y-96614700D02*
X136571428Y-96686128D01*
X136571428Y-96686128D02*
X136285714Y-96686128D01*
X136285714Y-96686128D02*
X136142857Y-96614700D01*
X136142857Y-96614700D02*
X136071428Y-96543271D01*
X136071428Y-96543271D02*
X135999999Y-96400414D01*
X135999999Y-96400414D02*
X135999999Y-96043271D01*
X135999999Y-96043271D02*
X136071428Y-95900414D01*
X136071428Y-95900414D02*
X136142857Y-95828985D01*
X136142857Y-95828985D02*
X136285714Y-95757557D01*
X136285714Y-95757557D02*
X136571428Y-95757557D01*
X136571428Y-95757557D02*
X136714285Y-95828985D01*
X136714285Y-95828985D02*
X136785714Y-95900414D01*
X136785714Y-95900414D02*
X136857142Y-96043271D01*
X158999999Y-77614700D02*
X158785714Y-77686128D01*
X158785714Y-77686128D02*
X158428571Y-77686128D01*
X158428571Y-77686128D02*
X158285714Y-77614700D01*
X158285714Y-77614700D02*
X158214285Y-77543271D01*
X158214285Y-77543271D02*
X158142856Y-77400414D01*
X158142856Y-77400414D02*
X158142856Y-77257557D01*
X158142856Y-77257557D02*
X158214285Y-77114700D01*
X158214285Y-77114700D02*
X158285714Y-77043271D01*
X158285714Y-77043271D02*
X158428571Y-76971842D01*
X158428571Y-76971842D02*
X158714285Y-76900414D01*
X158714285Y-76900414D02*
X158857142Y-76828985D01*
X158857142Y-76828985D02*
X158928571Y-76757557D01*
X158928571Y-76757557D02*
X158999999Y-76614700D01*
X158999999Y-76614700D02*
X158999999Y-76471842D01*
X158999999Y-76471842D02*
X158928571Y-76328985D01*
X158928571Y-76328985D02*
X158857142Y-76257557D01*
X158857142Y-76257557D02*
X158714285Y-76186128D01*
X158714285Y-76186128D02*
X158357142Y-76186128D01*
X158357142Y-76186128D02*
X158142856Y-76257557D01*
X157642857Y-76186128D02*
X157285714Y-77686128D01*
X157285714Y-77686128D02*
X157000000Y-76614700D01*
X157000000Y-76614700D02*
X156714285Y-77686128D01*
X156714285Y-77686128D02*
X156357143Y-76186128D01*
X155928571Y-76186128D02*
X154999999Y-76186128D01*
X154999999Y-76186128D02*
X155499999Y-76757557D01*
X155499999Y-76757557D02*
X155285714Y-76757557D01*
X155285714Y-76757557D02*
X155142857Y-76828985D01*
X155142857Y-76828985D02*
X155071428Y-76900414D01*
X155071428Y-76900414D02*
X154999999Y-77043271D01*
X154999999Y-77043271D02*
X154999999Y-77400414D01*
X154999999Y-77400414D02*
X155071428Y-77543271D01*
X155071428Y-77543271D02*
X155142857Y-77614700D01*
X155142857Y-77614700D02*
X155285714Y-77686128D01*
X155285714Y-77686128D02*
X155714285Y-77686128D01*
X155714285Y-77686128D02*
X155857142Y-77614700D01*
X155857142Y-77614700D02*
X155928571Y-77543271D01*
X139999999Y-77614700D02*
X139785714Y-77686128D01*
X139785714Y-77686128D02*
X139428571Y-77686128D01*
X139428571Y-77686128D02*
X139285714Y-77614700D01*
X139285714Y-77614700D02*
X139214285Y-77543271D01*
X139214285Y-77543271D02*
X139142856Y-77400414D01*
X139142856Y-77400414D02*
X139142856Y-77257557D01*
X139142856Y-77257557D02*
X139214285Y-77114700D01*
X139214285Y-77114700D02*
X139285714Y-77043271D01*
X139285714Y-77043271D02*
X139428571Y-76971842D01*
X139428571Y-76971842D02*
X139714285Y-76900414D01*
X139714285Y-76900414D02*
X139857142Y-76828985D01*
X139857142Y-76828985D02*
X139928571Y-76757557D01*
X139928571Y-76757557D02*
X139999999Y-76614700D01*
X139999999Y-76614700D02*
X139999999Y-76471842D01*
X139999999Y-76471842D02*
X139928571Y-76328985D01*
X139928571Y-76328985D02*
X139857142Y-76257557D01*
X139857142Y-76257557D02*
X139714285Y-76186128D01*
X139714285Y-76186128D02*
X139357142Y-76186128D01*
X139357142Y-76186128D02*
X139142856Y-76257557D01*
X138642857Y-76186128D02*
X138285714Y-77686128D01*
X138285714Y-77686128D02*
X138000000Y-76614700D01*
X138000000Y-76614700D02*
X137714285Y-77686128D01*
X137714285Y-77686128D02*
X137357143Y-76186128D01*
X136857142Y-76328985D02*
X136785714Y-76257557D01*
X136785714Y-76257557D02*
X136642857Y-76186128D01*
X136642857Y-76186128D02*
X136285714Y-76186128D01*
X136285714Y-76186128D02*
X136142857Y-76257557D01*
X136142857Y-76257557D02*
X136071428Y-76328985D01*
X136071428Y-76328985D02*
X135999999Y-76471842D01*
X135999999Y-76471842D02*
X135999999Y-76614700D01*
X135999999Y-76614700D02*
X136071428Y-76828985D01*
X136071428Y-76828985D02*
X136928571Y-77686128D01*
X136928571Y-77686128D02*
X135999999Y-77686128D01*
M02*
