%TF.GenerationSoftware,KiCad,Pcbnew,7.0.9*%
%TF.CreationDate,2023-11-21T21:31:42+09:00*%
%TF.ProjectId,celeron_kb_1,63656c65-726f-46e5-9f6b-625f312e6b69,rev?*%
%TF.SameCoordinates,Original*%
%TF.FileFunction,Legend,Top*%
%TF.FilePolarity,Positive*%
%FSLAX46Y46*%
G04 Gerber Fmt 4.6, Leading zero omitted, Abs format (unit mm)*
G04 Created by KiCad (PCBNEW 7.0.9) date 2023-11-21 21:31:42*
%MOMM*%
%LPD*%
G01*
G04 APERTURE LIST*
%ADD10C,0.120000*%
%ADD11C,0.150000*%
G04 APERTURE END LIST*
D10*
%TO.C,E2*%
X133900000Y-69550000D02*
X133900000Y-68950000D01*
X134200000Y-69250000D02*
X133900000Y-69550000D01*
X133900000Y-68950000D02*
X134200000Y-69250000D01*
X131700000Y-68450000D02*
X134200000Y-68450000D01*
X144300000Y-68450000D02*
X141500000Y-68450000D01*
X131700000Y-63650000D02*
X131700000Y-68450000D01*
X144300000Y-63550000D02*
X144300000Y-68450000D01*
X138000000Y-62250000D02*
X138000000Y-61250000D01*
X137500000Y-61750000D02*
X138500000Y-61750000D01*
X131700000Y-59950000D02*
X131700000Y-55050000D01*
X131700000Y-55050000D02*
X134300000Y-55050000D01*
X136700000Y-55050000D02*
X139300000Y-55050000D01*
X141700000Y-55050000D02*
X144300000Y-55050000D01*
X144300000Y-55050000D02*
X144300000Y-59950000D01*
X141000000Y-61750000D02*
G75*
G03*
X141000000Y-61750000I-3000000J0D01*
G01*
D11*
%TO.C,SW1*%
X112000000Y-75000000D02*
X112000000Y-74000000D01*
X112000000Y-88000000D02*
X112000000Y-87000000D01*
X112000000Y-88000000D02*
X113000000Y-88000000D01*
X113000000Y-74000000D02*
X112000000Y-74000000D01*
X125000000Y-88000000D02*
X126000000Y-88000000D01*
X126000000Y-74000000D02*
X125000000Y-74000000D01*
X126000000Y-74000000D02*
X126000000Y-75000000D01*
X126000000Y-87000000D02*
X126000000Y-88000000D01*
D10*
%TO.C,promicro*%
X91348000Y-53210000D02*
X96428000Y-53210000D01*
X91348000Y-86230000D02*
X91348000Y-53210000D01*
X94015000Y-55750000D02*
X91345000Y-55750000D01*
X94015000Y-83690000D02*
X94015000Y-55750000D01*
X94015000Y-83690000D02*
X94015000Y-86230000D01*
X94015000Y-86230000D02*
X91348000Y-86230000D01*
X96428000Y-53210000D02*
X104302000Y-53210000D01*
X104302000Y-53210000D02*
X109382000Y-53210000D01*
X106715000Y-55750000D02*
X109385000Y-55750000D01*
X106715000Y-58290000D02*
X109385000Y-58290000D01*
X106715000Y-86230000D02*
X106715000Y-55750000D01*
X106715000Y-86230000D02*
X109385000Y-86230000D01*
X109382000Y-53210000D02*
X109385000Y-86230000D01*
X109382000Y-86230000D02*
X94015000Y-86230000D01*
D11*
%TO.C,SW7*%
X150000000Y-94000000D02*
X150000000Y-93000000D01*
X150000000Y-107000000D02*
X150000000Y-106000000D01*
X150000000Y-107000000D02*
X151000000Y-107000000D01*
X151000000Y-93000000D02*
X150000000Y-93000000D01*
X163000000Y-107000000D02*
X164000000Y-107000000D01*
X164000000Y-93000000D02*
X163000000Y-93000000D01*
X164000000Y-93000000D02*
X164000000Y-94000000D01*
X164000000Y-106000000D02*
X164000000Y-107000000D01*
%TO.C,SW5*%
X112000000Y-94000000D02*
X112000000Y-93000000D01*
X112000000Y-107000000D02*
X112000000Y-106000000D01*
X112000000Y-107000000D02*
X113000000Y-107000000D01*
X113000000Y-93000000D02*
X112000000Y-93000000D01*
X125000000Y-107000000D02*
X126000000Y-107000000D01*
X126000000Y-93000000D02*
X125000000Y-93000000D01*
X126000000Y-93000000D02*
X126000000Y-94000000D01*
X126000000Y-106000000D02*
X126000000Y-107000000D01*
D10*
%TO.C,E3*%
X152900000Y-69550000D02*
X152900000Y-68950000D01*
X153200000Y-69250000D02*
X152900000Y-69550000D01*
X152900000Y-68950000D02*
X153200000Y-69250000D01*
X150700000Y-68450000D02*
X153200000Y-68450000D01*
X163300000Y-68450000D02*
X160500000Y-68450000D01*
X150700000Y-63650000D02*
X150700000Y-68450000D01*
X163300000Y-63550000D02*
X163300000Y-68450000D01*
X157000000Y-62250000D02*
X157000000Y-61250000D01*
X156500000Y-61750000D02*
X157500000Y-61750000D01*
X150700000Y-59950000D02*
X150700000Y-55050000D01*
X150700000Y-55050000D02*
X153300000Y-55050000D01*
X155700000Y-55050000D02*
X158300000Y-55050000D01*
X160700000Y-55050000D02*
X163300000Y-55050000D01*
X163300000Y-55050000D02*
X163300000Y-59950000D01*
X160000000Y-61750000D02*
G75*
G03*
X160000000Y-61750000I-3000000J0D01*
G01*
%TO.C,E1*%
X114900000Y-69550000D02*
X114900000Y-68950000D01*
X115200000Y-69250000D02*
X114900000Y-69550000D01*
X114900000Y-68950000D02*
X115200000Y-69250000D01*
X112700000Y-68450000D02*
X115200000Y-68450000D01*
X125300000Y-68450000D02*
X122500000Y-68450000D01*
X112700000Y-63650000D02*
X112700000Y-68450000D01*
X125300000Y-63550000D02*
X125300000Y-68450000D01*
X119000000Y-62250000D02*
X119000000Y-61250000D01*
X118500000Y-61750000D02*
X119500000Y-61750000D01*
X112700000Y-59950000D02*
X112700000Y-55050000D01*
X112700000Y-55050000D02*
X115300000Y-55050000D01*
X117700000Y-55050000D02*
X120300000Y-55050000D01*
X122700000Y-55050000D02*
X125300000Y-55050000D01*
X125300000Y-55050000D02*
X125300000Y-59950000D01*
X122000000Y-61750000D02*
G75*
G03*
X122000000Y-61750000I-3000000J0D01*
G01*
D11*
%TO.C,SW4*%
X93000000Y-94000000D02*
X93000000Y-93000000D01*
X93000000Y-107000000D02*
X93000000Y-106000000D01*
X93000000Y-107000000D02*
X94000000Y-107000000D01*
X94000000Y-93000000D02*
X93000000Y-93000000D01*
X106000000Y-107000000D02*
X107000000Y-107000000D01*
X107000000Y-93000000D02*
X106000000Y-93000000D01*
X107000000Y-93000000D02*
X107000000Y-94000000D01*
X107000000Y-106000000D02*
X107000000Y-107000000D01*
%TO.C,SW6*%
X131000000Y-94000000D02*
X131000000Y-93000000D01*
X131000000Y-107000000D02*
X131000000Y-106000000D01*
X131000000Y-107000000D02*
X132000000Y-107000000D01*
X132000000Y-93000000D02*
X131000000Y-93000000D01*
X144000000Y-107000000D02*
X145000000Y-107000000D01*
X145000000Y-93000000D02*
X144000000Y-93000000D01*
X145000000Y-93000000D02*
X145000000Y-94000000D01*
X145000000Y-106000000D02*
X145000000Y-107000000D01*
%TO.C,SW3*%
X150000000Y-75000000D02*
X150000000Y-74000000D01*
X150000000Y-88000000D02*
X150000000Y-87000000D01*
X150000000Y-88000000D02*
X151000000Y-88000000D01*
X151000000Y-74000000D02*
X150000000Y-74000000D01*
X163000000Y-88000000D02*
X164000000Y-88000000D01*
X164000000Y-74000000D02*
X163000000Y-74000000D01*
X164000000Y-74000000D02*
X164000000Y-75000000D01*
X164000000Y-87000000D02*
X164000000Y-88000000D01*
%TO.C,SW2*%
X131000000Y-75000000D02*
X131000000Y-74000000D01*
X131000000Y-88000000D02*
X131000000Y-87000000D01*
X131000000Y-88000000D02*
X132000000Y-88000000D01*
X132000000Y-74000000D02*
X131000000Y-74000000D01*
X144000000Y-88000000D02*
X145000000Y-88000000D01*
X145000000Y-74000000D02*
X144000000Y-74000000D01*
X145000000Y-74000000D02*
X145000000Y-75000000D01*
X145000000Y-87000000D02*
X145000000Y-88000000D01*
%TD*%
M02*
