%TF.GenerationSoftware,KiCad,Pcbnew,7.0.9*%
%TF.CreationDate,2023-11-21T21:31:42+09:00*%
%TF.ProjectId,celeron_kb_1,63656c65-726f-46e5-9f6b-625f312e6b69,rev?*%
%TF.SameCoordinates,Original*%
%TF.FileFunction,Soldermask,Bot*%
%TF.FilePolarity,Negative*%
%FSLAX46Y46*%
G04 Gerber Fmt 4.6, Leading zero omitted, Abs format (unit mm)*
G04 Created by KiCad (PCBNEW 7.0.9) date 2023-11-21 21:31:42*
%MOMM*%
%LPD*%
G01*
G04 APERTURE LIST*
%ADD10R,2.000000X2.000000*%
%ADD11C,2.000000*%
%ADD12R,2.500000X3.000000*%
%ADD13C,3.000000*%
%ADD14C,1.701800*%
%ADD15C,3.429000*%
%ADD16C,2.500000*%
%ADD17R,1.800000X1.800000*%
%ADD18C,1.800000*%
G04 APERTURE END LIST*
D10*
%TO.C,E2*%
X135500000Y-69250000D03*
D11*
X140500000Y-69250000D03*
X138000000Y-69250000D03*
D12*
X132400000Y-61750000D03*
X143600000Y-61750000D03*
D11*
X135500000Y-54750000D03*
X140500000Y-54750000D03*
%TD*%
D13*
%TO.C,*%
X89000000Y-53000000D03*
%TD*%
D14*
%TO.C,SW1*%
X113500000Y-81000000D03*
D15*
X119000000Y-81000000D03*
D14*
X124500000Y-81000000D03*
D16*
X119000000Y-86900000D03*
X114000000Y-84800000D03*
%TD*%
D17*
%TO.C,promicro*%
X107985000Y-57020000D03*
D18*
X107985000Y-59560000D03*
X107985000Y-62100000D03*
X107985000Y-64640000D03*
X107985000Y-67180000D03*
X107985000Y-69720000D03*
X107985000Y-72260000D03*
X107985000Y-74800000D03*
X107985000Y-77340000D03*
X107985000Y-79880000D03*
X107985000Y-82420000D03*
X107985000Y-84960000D03*
X92745000Y-84960000D03*
X92745000Y-82420000D03*
X92745000Y-79880000D03*
X92745000Y-77340000D03*
X92745000Y-74800000D03*
X92745000Y-72260000D03*
X92745000Y-69720000D03*
X92745000Y-67180000D03*
X92745000Y-64640000D03*
X92745000Y-62100000D03*
X92745000Y-59560000D03*
X92745000Y-57020000D03*
%TD*%
D13*
%TO.C,*%
X167000000Y-108000000D03*
%TD*%
D14*
%TO.C,SW7*%
X151500000Y-100000000D03*
D15*
X157000000Y-100000000D03*
D14*
X162500000Y-100000000D03*
D16*
X157000000Y-105900000D03*
X152000000Y-103800000D03*
%TD*%
D14*
%TO.C,SW5*%
X113500000Y-100000000D03*
D15*
X119000000Y-100000000D03*
D14*
X124500000Y-100000000D03*
D16*
X119000000Y-105900000D03*
X114000000Y-103800000D03*
%TD*%
D10*
%TO.C,E3*%
X154500000Y-69250000D03*
D11*
X159500000Y-69250000D03*
X157000000Y-69250000D03*
D12*
X151400000Y-61750000D03*
X162600000Y-61750000D03*
D11*
X154500000Y-54750000D03*
X159500000Y-54750000D03*
%TD*%
D13*
%TO.C,*%
X167000000Y-53000000D03*
%TD*%
D10*
%TO.C,E1*%
X116500000Y-69250000D03*
D11*
X121500000Y-69250000D03*
X119000000Y-69250000D03*
D12*
X113400000Y-61750000D03*
X124600000Y-61750000D03*
D11*
X116500000Y-54750000D03*
X121500000Y-54750000D03*
%TD*%
D14*
%TO.C,SW4*%
X94500000Y-100000000D03*
D15*
X100000000Y-100000000D03*
D14*
X105500000Y-100000000D03*
D16*
X100000000Y-105900000D03*
X95000000Y-103800000D03*
%TD*%
D13*
%TO.C,*%
X89000000Y-108000000D03*
%TD*%
%TO.C,*%
X89000000Y-53000000D03*
%TD*%
D14*
%TO.C,SW6*%
X132500000Y-100000000D03*
D15*
X138000000Y-100000000D03*
D14*
X143500000Y-100000000D03*
D16*
X138000000Y-105900000D03*
X133000000Y-103800000D03*
%TD*%
D14*
%TO.C,SW3*%
X151500000Y-81000000D03*
D15*
X157000000Y-81000000D03*
D14*
X162500000Y-81000000D03*
D16*
X157000000Y-86900000D03*
X152000000Y-84800000D03*
%TD*%
D13*
%TO.C,*%
X89000000Y-108000000D03*
%TD*%
D14*
%TO.C,SW2*%
X132500000Y-81000000D03*
D15*
X138000000Y-81000000D03*
D14*
X143500000Y-81000000D03*
D16*
X138000000Y-86900000D03*
X133000000Y-84800000D03*
%TD*%
M02*
