M48
; DRILL file {KiCad 7.0.9} date Tue Nov 21 21:31:44 2023
; FORMAT={-:-/ absolute / metric / decimal}
; #@! TF.CreationDate,2023-11-21T21:31:44+09:00
; #@! TF.GenerationSoftware,Kicad,Pcbnew,7.0.9
; #@! TF.FileFunction,NonPlated,1,2,NPTH
FMAT,2
METRIC
; #@! TA.AperFunction,NonPlated,NPTH,ComponentDrill
T1C1.702
; #@! TA.AperFunction,NonPlated,NPTH,ComponentDrill
T2C3.000
; #@! TA.AperFunction,NonPlated,NPTH,ComponentDrill
T3C3.429
%
G90
G05
T1
X94.5Y-100.0
X105.5Y-100.0
X113.5Y-81.0
X113.5Y-100.0
X124.5Y-81.0
X124.5Y-100.0
X132.5Y-81.0
X132.5Y-100.0
X143.5Y-81.0
X143.5Y-100.0
X151.5Y-81.0
X151.5Y-100.0
X162.5Y-81.0
X162.5Y-100.0
T2
X89.0Y-53.0
X89.0Y-53.0
X89.0Y-108.0
X89.0Y-108.0
X167.0Y-53.0
X167.0Y-108.0
T3
X100.0Y-100.0
X119.0Y-81.0
X119.0Y-100.0
X138.0Y-81.0
X138.0Y-100.0
X157.0Y-81.0
X157.0Y-100.0
T0
M30
