M48
; DRILL file {KiCad 7.0.9} date Tue Nov 21 21:31:44 2023
; FORMAT={-:-/ absolute / metric / decimal}
; #@! TF.CreationDate,2023-11-21T21:31:44+09:00
; #@! TF.GenerationSoftware,Kicad,Pcbnew,7.0.9
; #@! TF.FileFunction,Plated,1,2,PTH
FMAT,2
METRIC
; #@! TA.AperFunction,Plated,PTH,ComponentDrill
T1C0.800
; #@! TA.AperFunction,Plated,PTH,ComponentDrill
T2C0.850
; #@! TA.AperFunction,Plated,PTH,ComponentDrill
T3C1.000
; #@! TA.AperFunction,Plated,PTH,ComponentDrill
T4C1.270
; #@! TA.AperFunction,Plated,PTH,ComponentDrill
T5C2.000
%
G90
G05
T1
X107.985Y-57.02
X107.985Y-59.56
X107.985Y-62.1
X107.985Y-64.64
X107.985Y-67.18
X107.985Y-69.72
X107.985Y-72.26
X107.985Y-74.8
X107.985Y-77.34
X107.985Y-79.88
X107.985Y-82.42
X107.985Y-84.96
T2
X92.745Y-57.02
X92.745Y-59.56
X92.745Y-62.1
X92.745Y-64.64
X92.745Y-67.18
X92.745Y-69.72
X92.745Y-72.26
X92.745Y-74.8
X92.745Y-77.34
X92.745Y-79.88
X92.745Y-82.42
X92.745Y-84.96
T3
X116.5Y-54.75
X116.5Y-69.25
X119.0Y-69.25
X121.5Y-54.75
X121.5Y-69.25
X135.5Y-54.75
X135.5Y-69.25
X138.0Y-69.25
X140.5Y-54.75
X140.5Y-69.25
X154.5Y-54.75
X154.5Y-69.25
X157.0Y-69.25
X159.5Y-54.75
X159.5Y-69.25
T4
X95.0Y-103.8
X100.0Y-105.9
X114.0Y-84.8
X114.0Y-103.8
X119.0Y-86.9
X119.0Y-105.9
X133.0Y-84.8
X133.0Y-103.8
X138.0Y-86.9
X138.0Y-105.9
X152.0Y-84.8
X152.0Y-103.8
X157.0Y-86.9
X157.0Y-105.9
T5
G00X113.4Y-62.0
M15
G01X113.4Y-61.5
M16
G05
G00X124.6Y-62.0
M15
G01X124.6Y-61.5
M16
G05
G00X132.4Y-62.0
M15
G01X132.4Y-61.5
M16
G05
G00X143.6Y-62.0
M15
G01X143.6Y-61.5
M16
G05
G00X151.4Y-62.0
M15
G01X151.4Y-61.5
M16
G05
G00X162.6Y-62.0
M15
G01X162.6Y-61.5
M16
G05
T0
M30
