%TF.GenerationSoftware,KiCad,Pcbnew,7.0.9*%
%TF.CreationDate,2023-11-21T21:31:42+09:00*%
%TF.ProjectId,celeron_kb_1,63656c65-726f-46e5-9f6b-625f312e6b69,rev?*%
%TF.SameCoordinates,Original*%
%TF.FileFunction,Copper,L1,Top*%
%TF.FilePolarity,Positive*%
%FSLAX46Y46*%
G04 Gerber Fmt 4.6, Leading zero omitted, Abs format (unit mm)*
G04 Created by KiCad (PCBNEW 7.0.9) date 2023-11-21 21:31:42*
%MOMM*%
%LPD*%
G01*
G04 APERTURE LIST*
%TA.AperFunction,ComponentPad*%
%ADD10R,2.000000X2.000000*%
%TD*%
%TA.AperFunction,ComponentPad*%
%ADD11C,2.000000*%
%TD*%
%TA.AperFunction,ComponentPad*%
%ADD12R,2.500000X3.000000*%
%TD*%
%TA.AperFunction,ComponentPad*%
%ADD13C,2.500000*%
%TD*%
%TA.AperFunction,ComponentPad*%
%ADD14R,1.800000X1.800000*%
%TD*%
%TA.AperFunction,ComponentPad*%
%ADD15C,1.800000*%
%TD*%
G04 APERTURE END LIST*
D10*
%TO.P,E2,A,A*%
%TO.N,Net-(P1-~D6{slash}A7)*%
X135500000Y-69250000D03*
D11*
%TO.P,E2,B,B*%
%TO.N,Net-(P1-D7)*%
X140500000Y-69250000D03*
%TO.P,E2,C,C*%
%TO.N,Net-(P1-GND-Pad4)*%
X138000000Y-69250000D03*
D12*
%TO.P,E2,MP*%
%TO.N,N/C*%
X132400000Y-61750000D03*
X143600000Y-61750000D03*
D11*
%TO.P,E2,S1,S1*%
%TO.N,Net-(P1-GND-Pad4)*%
X135500000Y-54750000D03*
%TO.P,E2,S2,S2*%
%TO.N,Net-(P1-~D3)*%
X140500000Y-54750000D03*
%TD*%
D13*
%TO.P,SW1,1,1*%
%TO.N,Net-(P1-D20{slash}A2)*%
X119000000Y-86900000D03*
%TO.P,SW1,2,2*%
%TO.N,Net-(P1-GND-Pad23)*%
X114000000Y-84800000D03*
%TD*%
D14*
%TO.P,promicro,1,D1/TX*%
%TO.N,unconnected-(P1-D1{slash}TX-Pad1)*%
X107985000Y-57020000D03*
D15*
%TO.P,promicro,2,D0/RX*%
%TO.N,unconnected-(P1-D0{slash}RX-Pad2)*%
X107985000Y-59560000D03*
%TO.P,promicro,3,GND*%
%TO.N,unconnected-(P1-GND-Pad3)*%
X107985000Y-62100000D03*
%TO.P,promicro,4,GND*%
%TO.N,Net-(P1-GND-Pad4)*%
X107985000Y-64640000D03*
%TO.P,promicro,5,D2*%
%TO.N,Net-(P1-D2)*%
X107985000Y-67180000D03*
%TO.P,promicro,6,~D3*%
%TO.N,Net-(P1-~D3)*%
X107985000Y-69720000D03*
%TO.P,promicro,7,D4/A6*%
%TO.N,Net-(P1-D4{slash}A6)*%
X107985000Y-72260000D03*
%TO.P,promicro,8,~D5*%
%TO.N,Net-(P1-~D5)*%
X107985000Y-74800000D03*
%TO.P,promicro,9,~D6/A7*%
%TO.N,Net-(P1-~D6{slash}A7)*%
X107985000Y-77340000D03*
%TO.P,promicro,10,D7*%
%TO.N,Net-(P1-D7)*%
X107985000Y-79880000D03*
%TO.P,promicro,11,D8/A8*%
%TO.N,Net-(P1-D8{slash}A8)*%
X107985000Y-82420000D03*
%TO.P,promicro,12,~D9/A9*%
%TO.N,Net-(P1-~D9{slash}A9)*%
X107985000Y-84960000D03*
%TO.P,promicro,13,~D10/A10*%
%TO.N,Net-(P1-~D10{slash}A10)*%
X92745000Y-84960000D03*
%TO.P,promicro,14,D16*%
%TO.N,Net-(P1-D16)*%
X92745000Y-82420000D03*
%TO.P,promicro,15,D14*%
%TO.N,Net-(P1-D14)*%
X92745000Y-79880000D03*
%TO.P,promicro,16,D15*%
%TO.N,Net-(P1-D15)*%
X92745000Y-77340000D03*
%TO.P,promicro,17,D18/A0*%
%TO.N,Net-(P1-D18{slash}A0)*%
X92745000Y-74800000D03*
%TO.P,promicro,18,D19/A1*%
%TO.N,Net-(P1-D19{slash}A1)*%
X92745000Y-72260000D03*
%TO.P,promicro,19,D20/A2*%
%TO.N,Net-(P1-D20{slash}A2)*%
X92745000Y-69720000D03*
%TO.P,promicro,20,D21/A3*%
%TO.N,Net-(P1-D21{slash}A3)*%
X92745000Y-67180000D03*
%TO.P,promicro,21,VCC*%
%TO.N,unconnected-(P1-VCC-Pad21)*%
X92745000Y-64640000D03*
%TO.P,promicro,22,RST*%
%TO.N,unconnected-(P1-RST-Pad22)*%
X92745000Y-62100000D03*
%TO.P,promicro,23,GND*%
%TO.N,Net-(P1-GND-Pad23)*%
X92745000Y-59560000D03*
%TO.P,promicro,24,RAW*%
%TO.N,unconnected-(P1-RAW-Pad24)*%
X92745000Y-57020000D03*
%TD*%
D13*
%TO.P,SW7,1,1*%
%TO.N,Net-(P1-GND-Pad23)*%
X157000000Y-105900000D03*
%TO.P,SW7,2,2*%
%TO.N,Net-(P1-D15)*%
X152000000Y-103800000D03*
%TD*%
%TO.P,SW5,1,1*%
%TO.N,Net-(P1-GND-Pad23)*%
X119000000Y-105900000D03*
%TO.P,SW5,2,2*%
%TO.N,Net-(P1-D16)*%
X114000000Y-103800000D03*
%TD*%
D10*
%TO.P,E3,A,A*%
%TO.N,Net-(P1-D8{slash}A8)*%
X154500000Y-69250000D03*
D11*
%TO.P,E3,B,B*%
%TO.N,Net-(P1-~D9{slash}A9)*%
X159500000Y-69250000D03*
%TO.P,E3,C,C*%
%TO.N,Net-(P1-GND-Pad4)*%
X157000000Y-69250000D03*
D12*
%TO.P,E3,MP*%
%TO.N,N/C*%
X151400000Y-61750000D03*
X162600000Y-61750000D03*
D11*
%TO.P,E3,S1,S1*%
%TO.N,Net-(P1-GND-Pad4)*%
X154500000Y-54750000D03*
%TO.P,E3,S2,S2*%
%TO.N,Net-(P1-D21{slash}A3)*%
X159500000Y-54750000D03*
%TD*%
D10*
%TO.P,E1,A,A*%
%TO.N,Net-(P1-D4{slash}A6)*%
X116500000Y-69250000D03*
D11*
%TO.P,E1,B,B*%
%TO.N,Net-(P1-~D5)*%
X121500000Y-69250000D03*
%TO.P,E1,C,C*%
%TO.N,Net-(P1-GND-Pad4)*%
X119000000Y-69250000D03*
D12*
%TO.P,E1,MP*%
%TO.N,N/C*%
X113400000Y-61750000D03*
X124600000Y-61750000D03*
D11*
%TO.P,E1,S1,S1*%
%TO.N,Net-(P1-GND-Pad4)*%
X116500000Y-54750000D03*
%TO.P,E1,S2,S2*%
%TO.N,Net-(P1-D2)*%
X121500000Y-54750000D03*
%TD*%
D13*
%TO.P,SW4,1,1*%
%TO.N,Net-(P1-GND-Pad23)*%
X100000000Y-105900000D03*
%TO.P,SW4,2,2*%
%TO.N,Net-(P1-~D10{slash}A10)*%
X95000000Y-103800000D03*
%TD*%
%TO.P,SW6,1,1*%
%TO.N,Net-(P1-GND-Pad23)*%
X138000000Y-105900000D03*
%TO.P,SW6,2,2*%
%TO.N,Net-(P1-D14)*%
X133000000Y-103800000D03*
%TD*%
%TO.P,SW3,1,1*%
%TO.N,Net-(P1-D18{slash}A0)*%
X157000000Y-86900000D03*
%TO.P,SW3,2,2*%
%TO.N,Net-(P1-GND-Pad23)*%
X152000000Y-84800000D03*
%TD*%
%TO.P,SW2,1,1*%
%TO.N,Net-(P1-D19{slash}A1)*%
X138000000Y-86900000D03*
%TO.P,SW2,2,2*%
%TO.N,Net-(P1-GND-Pad23)*%
X133000000Y-84800000D03*
%TD*%
M02*
